<mxfile host="Electron" agent="Mozilla/5.0 (Windows NT 10.0; Win64; x64) AppleWebKit/537.36 (KHTML, like Gecko) draw.io/28.1.2 Chrome/138.0.7204.243 Electron/37.4.0 Safari/537.36" version="28.1.2">
  <diagram name="Página-1" id="rWQTg0kBx5EpSP0HZYDa">
    <mxGraphModel dx="1426" dy="849" grid="1" gridSize="10" guides="1" tooltips="1" connect="1" arrows="1" fold="1" page="1" pageScale="1" pageWidth="827" pageHeight="1169" math="0" shadow="0">
      <root>
        <mxCell id="0" />
        <mxCell id="1" parent="0" />
        <mxCell id="wPA51nltYxrv5TWpWIks-28" value="" style="verticalLabelPosition=bottom;verticalAlign=top;html=1;shape=mxgraph.basic.rect;fillColor2=none;strokeWidth=1;size=20;indent=5;" parent="1" vertex="1">
          <mxGeometry x="20" y="130" width="690" height="520" as="geometry" />
        </mxCell>
        <mxCell id="wPA51nltYxrv5TWpWIks-25" value="" style="verticalLabelPosition=bottom;verticalAlign=top;html=1;shape=mxgraph.basic.rect;fillColor2=none;strokeWidth=1;size=20;indent=5;" parent="1" vertex="1">
          <mxGeometry x="110" y="260" width="200" height="220" as="geometry" />
        </mxCell>
        <mxCell id="wPA51nltYxrv5TWpWIks-3" value="Subnet&amp;nbsp;pública - 10.0.1.0/24" style="sketch=0;outlineConnect=0;gradientColor=none;html=1;whiteSpace=wrap;fontSize=12;fontStyle=0;shape=mxgraph.aws4.group;grIcon=mxgraph.aws4.group_subnet;strokeColor=#E8E8E8;fillColor=none;verticalAlign=top;align=left;spacingLeft=30;fontColor=#E8E8E8;dashed=0;" parent="1" vertex="1">
          <mxGeometry x="40" y="160" width="650" height="460" as="geometry" />
        </mxCell>
        <mxCell id="wPA51nltYxrv5TWpWIks-6" value="Security group" style="fillColor=none;strokeColor=#DD3522;verticalAlign=top;fontStyle=0;fontColor=#DD3522;whiteSpace=wrap;html=1;" parent="1" vertex="1">
          <mxGeometry x="60" y="210" width="310" height="360" as="geometry" />
        </mxCell>
        <mxCell id="wPA51nltYxrv5TWpWIks-1" value="EC2 - web-server-1" style="verticalLabelPosition=bottom;html=1;verticalAlign=top;strokeWidth=1;align=center;outlineConnect=0;dashed=0;outlineConnect=0;shape=mxgraph.aws3d.application_server;fillColor=#ECECEC;strokeColor=#5E5E5E;aspect=fixed;strokeColor2=#292929;" parent="1" vertex="1">
          <mxGeometry x="200" y="327" width="73.4" height="74" as="geometry" />
        </mxCell>
        <mxCell id="wPA51nltYxrv5TWpWIks-4" style="edgeStyle=orthogonalEdgeStyle;rounded=0;orthogonalLoop=1;jettySize=auto;html=1;" parent="1" source="wPA51nltYxrv5TWpWIks-2" target="wPA51nltYxrv5TWpWIks-1" edge="1">
          <mxGeometry relative="1" as="geometry" />
        </mxCell>
        <mxCell id="wPA51nltYxrv5TWpWIks-5" value="&lt;font&gt;EBS volume anexado&lt;/font&gt;" style="edgeLabel;html=1;align=center;verticalAlign=middle;resizable=0;points=[];" parent="wPA51nltYxrv5TWpWIks-4" vertex="1" connectable="0">
          <mxGeometry x="-0.1885" y="2" relative="1" as="geometry">
            <mxPoint as="offset" />
          </mxGeometry>
        </mxCell>
        <mxCell id="wPA51nltYxrv5TWpWIks-2" value="EBS — attached to web-server-1" style="verticalLabelPosition=bottom;html=1;verticalAlign=top;strokeWidth=1;align=center;outlineConnect=0;dashed=0;outlineConnect=0;shape=mxgraph.aws3d.ebs;fillColor=#ECECEC;strokeColor=#5E5E5E;aspect=fixed;strokeColor2=#292929;" parent="1" vertex="1">
          <mxGeometry x="500" y="334" width="92" height="60" as="geometry" />
        </mxCell>
        <mxCell id="wPA51nltYxrv5TWpWIks-7" value="Security Group: allow 22 (SSH) from &amp;lt;seu-ip&amp;gt;; 80 (HTTP) / 443 (HTTPS) from 0.0.0.0/0" style="text;strokeColor=none;align=center;fillColor=none;html=1;verticalAlign=middle;whiteSpace=wrap;rounded=0;" parent="1" vertex="1">
          <mxGeometry x="100" y="520" width="230" height="40" as="geometry" />
        </mxCell>
        <mxCell id="wPA51nltYxrv5TWpWIks-12" value="&lt;li data-end=&quot;2027&quot; data-start=&quot;2000&quot;&gt;&lt;p data-end=&quot;2027&quot; data-start=&quot;2002&quot;&gt;&lt;code data-end=&quot;2027&quot; data-start=&quot;2002&quot;&gt;EC2 = Instância compute&lt;/code&gt;&lt;/p&gt;&lt;/li&gt;&lt;li data-end=&quot;2027&quot; data-start=&quot;2000&quot;&gt;&lt;p data-end=&quot;2027&quot; data-start=&quot;2002&quot;&gt;&lt;span style=&quot;background-color: transparent; color: light-dark(rgb(0, 0, 0), rgb(255, 255, 255));&quot;&gt;EBS = Volume block storage (persistente, anexado à EC2)&lt;/span&gt;&lt;/p&gt;&lt;/li&gt;&lt;li data-end=&quot;2027&quot; data-start=&quot;2000&quot;&gt;&lt;p data-end=&quot;2027&quot; data-start=&quot;2002&quot;&gt;&lt;span style=&quot;background-color: transparent; color: light-dark(rgb(0, 0, 0), rgb(255, 255, 255));&quot;&gt;VPC / Subnet / Security Group = contexto de rede&lt;/span&gt;&lt;/p&gt;&lt;/li&gt;" style="text;strokeColor=none;align=center;fillColor=none;html=1;verticalAlign=middle;whiteSpace=wrap;rounded=0;" parent="1" vertex="1">
          <mxGeometry x="690" y="270" width="380" height="90" as="geometry" />
        </mxCell>
        <mxCell id="wPA51nltYxrv5TWpWIks-13" value="" style="shape=note;whiteSpace=wrap;html=1;backgroundOutline=1;fontColor=#000000;darkOpacity=0.05;fillColor=#FFF9B2;strokeColor=none;fillStyle=solid;direction=west;gradientDirection=north;gradientColor=#FFF2A1;shadow=1;size=20;pointerEvents=1;" parent="1" vertex="1">
          <mxGeometry x="760" y="440" width="140" height="160" as="geometry" />
        </mxCell>
        <mxCell id="wPA51nltYxrv5TWpWIks-14" value="&lt;font style=&quot;color: rgb(0, 0, 0);&quot;&gt;EBS é um volume block-level persistente anexado à EC2; se migrar a instância, é preciso desanexar ou criar snapshot.”&lt;/font&gt;" style="text;strokeColor=none;align=center;fillColor=none;html=1;verticalAlign=middle;whiteSpace=wrap;rounded=0;fontColor=#000000;" parent="1" vertex="1">
          <mxGeometry x="775" y="460" width="110" height="120" as="geometry" />
        </mxCell>
        <mxCell id="wPA51nltYxrv5TWpWIks-33" style="edgeStyle=orthogonalEdgeStyle;rounded=0;orthogonalLoop=1;jettySize=auto;html=1;" parent="1" source="wPA51nltYxrv5TWpWIks-15" target="wPA51nltYxrv5TWpWIks-1" edge="1">
          <mxGeometry relative="1" as="geometry" />
        </mxCell>
        <mxCell id="wPA51nltYxrv5TWpWIks-15" value="Internet&#xa;gateway" style="sketch=0;outlineConnect=0;fontColor=#232F3E;gradientColor=none;strokeColor=#232F3E;fillColor=#ffffff;dashed=0;verticalLabelPosition=bottom;verticalAlign=top;align=center;html=1;fontSize=12;fontStyle=0;aspect=fixed;shape=mxgraph.aws4.resourceIcon;resIcon=mxgraph.aws4.internet_gateway;" parent="1" vertex="1">
          <mxGeometry x="206.7" y="30" width="60" height="60" as="geometry" />
        </mxCell>
        <mxCell id="wPA51nltYxrv5TWpWIks-18" value="VPC - 10.0.0.0/16" style="text;strokeColor=none;align=center;fillColor=none;html=1;verticalAlign=middle;whiteSpace=wrap;rounded=0;" parent="1" vertex="1">
          <mxGeometry x="23.399999999999977" y="130" width="230" height="30" as="geometry" />
        </mxCell>
        <mxCell id="wPA51nltYxrv5TWpWIks-20" style="edgeStyle=orthogonalEdgeStyle;rounded=0;orthogonalLoop=1;jettySize=auto;html=1;" parent="1" source="wPA51nltYxrv5TWpWIks-19" target="wPA51nltYxrv5TWpWIks-15" edge="1">
          <mxGeometry relative="1" as="geometry" />
        </mxCell>
        <mxCell id="wPA51nltYxrv5TWpWIks-19" value="User" style="sketch=0;outlineConnect=0;fontColor=#232F3E;gradientColor=none;strokeColor=#232F3E;fillColor=#ffffff;dashed=0;verticalLabelPosition=bottom;verticalAlign=top;align=center;html=1;fontSize=12;fontStyle=0;aspect=fixed;shape=mxgraph.aws4.resourceIcon;resIcon=mxgraph.aws4.user;" parent="1" vertex="1">
          <mxGeometry x="40" y="30" width="60" height="60" as="geometry" />
        </mxCell>
        <mxCell id="wPA51nltYxrv5TWpWIks-27" value="22 (SSH) – only my IP" style="text;strokeColor=none;align=center;fillColor=none;html=1;verticalAlign=middle;whiteSpace=wrap;rounded=0;" parent="1" vertex="1">
          <mxGeometry x="110" y="260" width="100" height="30" as="geometry" />
        </mxCell>
      </root>
    </mxGraphModel>
  </diagram>
</mxfile>
